<svg viewBox="0 0 24 24" xmlns="http://www.w3.org/2000/svg">
  <path fill="#FFFFFF" d="M4.72 2.5s-.08.13 0 .32c.05.12.19.26.34.4 0 0 1.62 1.58 1.81 1.8A5.05 5.05 0 0 1 8.2 8.49c.03.9-.15 1.7-.57 2.61-.76 1.65-2.35 3.47-4.81 5.5l.36-.13c.23-.17.55-.36 1.3-.76a46.4 46.4 0 0 1 6-2.69 74.97 74.97 0 0 1 12.16-3.26l.33-.05-.05-.08a8.7 8.7 0 0 0-3.3-3.17A19.14 19.14 0 0 0 14 4.55a67.93 67.93 0 0 0-2.2-.37 209.29 209.29 0 0 1-3.92-.64c-.42-.08-1.06-.18-1.48-.27a9.4 9.4 0 0 1-.96-.26c-.27-.1-.65-.2-.73-.52zm.94.91.14.05a11.1 11.1 0 0 0 1 .28l.4.1a32.17 32.17 0 0 1 .6 1.97.79.79 0 0 1-.09-.14 7.58 7.58 0 0 0-1.87-2.11 3.1 3.1 0 0 1-.18-.15zm1.79.5.2.03a62.17 62.17 0 0 0 2.65.52.35.35 0 0 1-.1.06A7.18 7.18 0 0 0 8.4 5.8a5.4 5.4 0 0 1-.2.2l-.03-.15a12.09 12.09 0 0 0-.65-1.78 1.8 1.8 0 0 1-.07-.16zm3.15.6c.02 0 .06.13.13.4a6.05 6.05 0 0 1 .15 1.98l-.01.03-.19-.06-1.56-.46a6.63 6.63 0 0 1-.56-.17c0-.02.45-.47.64-.64.37-.32 1.36-1.1 1.4-1.08zm.25.03a64.24 64.24 0 0 1 3.46.65c.02 0-.05.05-.3.16a15.62 15.62 0 0 0-2.72 1.52v-.23c0-.7-.15-1.39-.4-1.98a.69.69 0 0 1-.04-.12zm3.86.77-.08.48a9.17 9.17 0 0 1-.92 2.1 2.26 2.26 0 0 1-.15.24 1.5 1.5 0 0 1-.22-.11c-.42-.25-.9-.48-1.42-.7a4.59 4.59 0 0 1-.28-.12 21.78 21.78 0 0 1 3.07-1.9zm.27.04a20.28 20.28 0 0 1 3.52 1.19l.26.12-.19.04a27.1 27.1 0 0 0-4.4 1.37.91.91 0 0 1 .08-.18 7.46 7.46 0 0 0 .73-2.54zM8.4 6.86a13.61 13.61 0 0 1 2.08.62l-.21.19c-.48.4-.94.81-1.48 1.34a5.27 5.27 0 0 1-.31.28v-.05c.07-.6.06-1.39-.06-2.19a1.29 1.29 0 0 1-.02-.19zm10.61.01c.01 0-.23.39-.38.6-.22.31-.54.73-1.26 1.64l-.96 1.2a9.42 9.42 0 0 1-.27.33l-.1-.14a7.58 7.58 0 0 0-1.47-1.63 9.59 9.59 0 0 0-.27-.22.43.43 0 0 1-.07-.06l1.09-.47a37.02 37.02 0 0 1 2.77-.99l.92-.26zm.28.07a.93.93 0 0 1 .2.1 12.27 12.27 0 0 1 2.44 1.83l.66.68-.37.03c-1.53.12-3.48.44-5.37.9l-.24.05.3-.3a9.2 9.2 0 0 0 2.38-3.29zm-8.09.83a12.12 12.12 0 0 1 1.72.86l-.38.2a24.58 24.58 0 0 0-2.2 1.23c-.02 0-.01-.01.08-.19a7.7 7.7 0 0 0 .74-2l.04-.1zm-.47.09s-.11.46-.2.7a9.1 9.1 0 0 1-.83 1.8l-.09.15-.2-.2a2.67 2.67 0 0 0-.68-.5 1 1 0 0 1-.17-.1 24.51 24.51 0 0 1 2.17-1.86zm2.89 1.19.17.11a14.28 14.28 0 0 1 1.94 1.54l.05.05-.3.08a53.8 53.8 0 0 0-4.45 1.42l-.32.12c-.02 0-.04.02.34-.33.96-.88 1.8-1.86 2.44-2.8zm-.76.19-.8 1.1a47.9 47.9 0 0 1-1.42 1.78 8.77 8.77 0 0 1-.34.4c-.01 0-.02-.05-.02-.13 0-.44-.11-.91-.3-1.31-.1-.17-.1-.21-.09-.23a33.1 33.1 0 0 1 2.97-1.61zm-4.6 1.12a3.99 3.99 0 0 1 .82.52l-.21.17a36.5 36.5 0 0 0-1.47 1.1 6.46 6.46 0 0 0 .8-1.6.68.68 0 0 1 .07-.19zm1.23.96c.02 0 .04.03.14.18.2.3.36.72.4 1.05l.01.08-.5.19a46.73 46.73 0 0 0-3.2 1.39l.26-.2a14.75 14.75 0 0 0 2.88-2.69.02.02 0 0 1 .01 0zm-.56.14a12.12 12.12 0 0 1-3.16 2.73c-.02.01 0-.02.38-.43.24-.26.42-.48.63-.75.14-.17.16-.2.36-.34.54-.4 1.77-1.22 1.79-1.21zM9.93 0a23.5 23.5 0 0 0-2.2.8c-1.13.45-2 .89-2.54 1.26-.2.14-.45.4-.49.5a.36.36 0 0 0-.02.12l.49.46 1.16.37L9.09 4l3.15.54.03-.27h-.03l-.41-.07-.09-.15a27.7 27.7 0 0 1-1.17-2.32 12.26 12.26 0 0 1-.53-1.47C9.97.02 9.96 0 9.93 0zm-.07.19a7.62 7.62 0 0 0 .39 1.76c.14.4.14.37-.02.32-.37-.1-2.03-.38-3.23-.55a8.8 8.8 0 0 1-.36-.06c-.01-.01.87-.47 1.26-.65C8.4.76 9.77.2 9.86.18zM6.36 1.8l.14.05a21.72 21.72 0 0 0 4 .75l-.22.12a19.46 19.46 0 0 0-1.72.95 4.87 4.87 0 0 1-.17-.03l-.14-.02-.36-.36L6.54 2zm-.14.12.51.64a163.46 163.46 0 0 0 .73.91c-.01.01-.74-.13-1.12-.22a8.53 8.53 0 0 1-.8-.21l-.2-.06v-.05c0-.25.3-.61.83-.98zm4.35.87c.02 0 .03.03.08.13.12.27.5 1 .6 1.15.03.04.08.05-.43-.04l-1.63-.27a.36.36 0 0 1 .08-.05 7.13 7.13 0 0 0 1.1-.77l.18-.15h.02zm4.31 8.4-4.8 1.57-4.19 1.85-1.17.3a31.28 31.28 0 0 1-1.93 1.7 7.46 7.46 0 0 0-.95.94c-.33.41-.6.85-.7 1.19a2 2 0 0 0 .28 1.8c.5.73 1.48 1.47 2.63 1.97.58.26 1.57.59 2.3.77 1.24.32 3.62.65 4.93.7h.64a22.42 22.42 0 0 0 2.17-5.4 20.95 20.95 0 0 0 .45-5.06 13.56 13.56 0 0 0-.18-1.7.43.43 0 0 1-.01-.15c.01-.01.06-.03.65-.2zm-1.1.65a11.71 11.71 0 0 1 .19 2.07c-.03 0-.62-.35-1.03-.6a28.72 28.72 0 0 1-1.17-.78c-.03-.03-.03-.03.27-.13.5-.18 1.7-.56 1.74-.56zm-2.45.8a22.92 22.92 0 0 0 2.51 1.4c.14.06.16.04-.15.25-.66.45-1.49.89-2.5 1.34a7.59 7.59 0 0 1-.33.14.99.99 0 0 1 .04-.2c.25-.9.39-1.82.39-2.55 0-.36 0-.37.04-.38zm-.5.2c.02.02 0 .83-.02 1.05a9.2 9.2 0 0 1-.42 1.84c-.01.02-.51-.47-.68-.66a4.92 4.92 0 0 1-.66-.97 3.07 3.07 0 0 1-.2-.5 44 44 0 0 1 1.98-.76zm-2.38.93h.01a.88.88 0 0 1 .06.14c.12.31.38.78.6 1.08a6.25 6.25 0 0 0 1.02 1.06c.02.02.03.01-.56.24a48.53 48.53 0 0 1-2.3.8l-.61.2c-.04 0-.03-.01.07-.16a20.19 20.19 0 0 0 1.57-3.25c.01-.05.03-.07.08-.1a.15.15 0 0 1 .06 0zm-.72.3a28.98 28.98 0 0 1-1.6 2.94l-.2.29c-.01.02-.02.01-.08-.1a3.3 3.3 0 0 1-.28-.84 3.39 3.39 0 0 1 .02-1.08c.05-.23.05-.22.15-.28.47-.24 1.97-.94 1.99-.93zm6.26.26v.15a20.1 20.1 0 0 1-.25 3 9.36 9.36 0 0 1-1.9-.79c-.35-.2-.86-.5-.85-.52l.33-.18a21.17 21.17 0 0 0 2.62-1.62zM5 15.4l-.02.16a4.14 4.14 0 0 0-.04.4c-.03.52.06.91.32 1.45l.13.28c-.03.02-2.43.72-3.19.93l-.43.12c-.03 0-.03 0-.02-.06a4.74 4.74 0 0 1 2.25-2.73 30.78 30.78 0 0 1 1-.55zm5.66 1.01.2.11c.77.45 1.86.87 2.78 1.08l.08.02-.11.07c-.48.26-2.07.92-3.7 1.53a68.82 68.82 0 0 0-.5.2.31.31 0 0 1-.09.02l.15-.28a18.03 18.03 0 0 0 1.19-2.75zm-.58.2a1.39 1.39 0 0 1-.06.16 23.53 23.53 0 0 1-1.26 2.54 9 9 0 0 1-.25.44l-.25-.15A7.45 7.45 0 0 1 6.35 18l-.06-.08.33-.1a23.62 23.62 0 0 0 3.19-1.1l.26-.1zm3.6 1.25a43.9 43.9 0 0 1-.77 2.8 8.53 8.53 0 0 1-.18.51 15 15 0 0 1-3-.84 7.96 7.96 0 0 1-.63-.28c-.01 0 .2-.11.48-.23a47.43 47.43 0 0 0 3.96-1.9.43.43 0 0 1 .13-.06zm-8.3.28c.01.01-.45.67-1.1 1.58l-.58.82-.33.49-.15.23-.17-.13c-.19-.16-.52-.5-.67-.7-.32-.38-.53-.8-.61-1.17-.04-.17-.04-.26 0-.27a176.26 176.26 0 0 1 1.93-.45l1.3-.31.38-.09zm.47.18.12.13a6.76 6.76 0 0 0 1.7 1.4c.12.06.2.12.2.12a281.97 281.97 0 0 1-4.33 1.53.86.86 0 0 1-.07-.05l-.07-.04.1-.16c.34-.49.77-1.03 1.7-2.16zm2.9 2.07.36.13a15.15 15.15 0 0 0 3.5.8l-.96.31a258.53 258.53 0 0 1-4.63 1.37l-.16-.04.2-.25a22.03 22.03 0 0 0 1.47-1.98 56.9 56.9 0 0 1 .22-.34zm-.64.02-.7 1.13-.5.76-.23.4-.11.19-.05-.01c-.13-.04-1.05-.36-1.3-.46-.3-.12-.61-.26-.84-.39a3.56 3.56 0 0 1-.63-.4l1.1-.3a94.67 94.67 0 0 0 3.26-.92zm4.52 1.06c.02.04-.57 1.67-.78 2.19-.05.12-.07.14-.1.14a55.54 55.54 0 0 1-1.43-.2c-.9-.14-2.42-.4-2.8-.49l-.1-.02.55-.12a29.6 29.6 0 0 0 2.29-.58 16.54 16.54 0 0 0 2.14-.82c.11-.05.2-.1.23-.1Z"/>
</svg>