<svg version="1.1" id="Layer_1" xmlns="http://www.w3.org/2000/svg" x="0" y="0" viewBox="0 0 96 96" style="enable-background:new 0 0 96 96" xml:space="preserve">
  <path fill="#000000" d="M90.95 0H0v96h96V0h-5.05zm-41.3 45.27 1.6-3.81 4.4-.79 4.41-4.37.81-4.41 3.82-1.56 3.67 2.56 6.19.04 3.69-2.55 3.83 1.6.85 4.9 5.74 2.7-19.22 16.48-6.78-6.79-3.54 3.54 10.06 10.06 20.94-17.96-.02 18.14-2.94.51-4.42 4.38-.81 4.41-3.82 1.56-3.67-2.57h-6.22l-3.68 2.54-3.81-1.6-.79-4.42-4.35-4.42-4.42-.79-1.57-3.82 2.56-3.66.03-6.21-2.54-3.7zm37.75-11.8-.88-5.06-8.87-3.7-4.65 3.2-3.05-.01-4.62-3.23-8.88 3.62-1.02 5.56-2.2 2.17-5.55 1-3.7 8.84 3.2 4.64-.01 3.08-3.23 4.63 3.66 8.88 5.54 1 2.15 2.18 1 5.58 8.84 3.7 4.65-3.2h3.08l4.61 3.22 8.88-3.63 1.02-5.55 2.2-2.17.53-.1-.02 22.06-84.29-.22.04-37.2 2.9 1.22 2.5 3.9h6.28l2.5-3.9 3.91-1.65 4.53 1 4.41-4.45-.99-4.5 1.65-3.94 3.9-2.47v-6.28l-3.9-2.5-1.65-3.92.99-4.55-4.41-4.41-4.53.99L20 15.67l-2.5-3.9h-6.27l-2.5 3.9-2.86 1.18.01-10.98h84.28l-.03 28.86-2.73-1.28zM5.86 25a12.98 12.98 0 0 1 21.49 9.8 12.98 12.98 0 0 1-21.5 9.8L5.85 25z"/>
  <path fill="#000000" d="m28.31 69.16 2.78 1.99 2.74-2.01-1.06-3.24h-3.41z"/>
  <path fill="#000000" d="m40.13 62.23 1.15-3.56-4.31-3.11-3.02 2.2h-5.8l-3.02-2.19-4.3 3.14 1.16 3.57-1.8 5.5L17.19 70l1.66 5.06 3.75-.02 4.69 3.4 1.16 3.55h5.31l1.17-3.57L39.6 75l3.73-.02 1.64-5.06-3.04-2.2-1.8-5.5zm-5.55 10.82-7 .02-2.17-6.64 5.64-4.12 5.67 4.09-2.14 6.65zM21.9 34.82a7.53 7.53 0 1 0-15.07-.03 7.53 7.53 0 0 0 15.06.03z"/>
</svg>